<svg role="img" viewBox="0 0 24 24" xmlns="http://www.w3.org/2000/svg"><title>Bootstrap</title><path d="M11.473 2.319c.39-.39.39-1.024 0-1.414-.39-.39-1.024-.39-1.414 0-.39.39-.39 1.024 0 1.414.39.39 1.024.39 1.414 0zm-3.527 2.475c.39-.39.39-1.024 0-1.414-.39-.39-1.024-.39-1.414 0-.39.39-.39 1.024 0 1.414.39.39 1.024.39 1.414 0zm6.054 0c.39-.39.39-1.024 0-1.414-.39-.39-1.024-.39-1.414 0-.39.39-.39 1.024 0 1.414.39.39 1.024.39 1.414 0zm-9.08 2.475c.39-.39.39-1.024 0-1.414-.39-.39-1.024-.39-1.414 0-.39.39-.39 1.024 0 1.414.39.39 1.024.39 1.414 0zm12.108 0c.39-.39.39-1.024 0-1.414-.39-.39-1.024-.39-1.414 0-.39.39-.39 1.024 0 1.414.39.39 1.024.39 1.414 0zm-15.135 2.475c.39-.39.39-1.024 0-1.414-.39-.39-1.024-.39-1.414 0-.39.39-.39 1.024 0 1.414.39.39 1.024.39 1.414 0zm18.162 0c.39-.39.39-1.024 0-1.414-.39-.39-1.024-.39-1.414 0-.39.39-.39 1.024 0 1.414.39.39 1.024.39 1.414 0zm-21.189 2.475c.39-.39.39-1.024 0-1.414-.39-.39-1.024-.39-1.414 0-.39.39-.39 1.024 0 1.414.39.39 1.024.39 1.414 0zm24.216 0c.39-.39.39-1.024 0-1.414-.39-.39-1.024-.39-1.414 0-.39.39-.39 1.024 0 1.414.39.39 1.024.39 1.414 0zm-27.243 2.475c.39-.39.39-1.024 0-1.414-.39-.39-1.024-.39-1.414 0-.39.39-.39 1.024 0 1.414.39.39 1.024.39 1.414 0zm30.27 0c.39-.39.39-1.024 0-1.414-.39-.39-1.024-.39-1.414 0-.39.39-.39 1.024 0 1.414.39.39 1.024.39 1.414 0zm-33.297 2.475c.39-.39.39-1.024 0-1.414-.39-.39-1.024-.39-1.414 0-.39.39-.39 1.024 0 1.414.39.39 1.024.39 1.414 0zm36.324 0c.39-.39.39-1.024 0-1.414-.39-.39-1.024-.39-1.414 0-.39.39-.39 1.024 0 1.414.39.39 1.024.39 1.414 0zm-39.351 2.475c.39-.39.39-1.024 0-1.414-.39-.39-1.024-.39-1.414 0-.39.39-.39 1.024 0 1.414.39.39 1.024.39 1.414 0zm42.378 0c.39-.39.39-1.024 0-1.414-.39-.39-1.024-.39-1.414 0-.39.39-.39 1.024 0 1.414.39.39 1.024.39 1.414 0zm-45.405 2.475c.39-.39.39-1.024 0-1.414-.39-.39-1.024-.39-1.414 0-.39.39-.39 1.024 0 1.414.39.39 1.024.39 1.414 0zm48.432 0c.39-.39.39-1.024 0-1.414-.39-.39-1.024-.39-1.414 0-.39.39-.39 1.024 0 1.414.39.39 1.024.39 1.414 0z"/></svg>