<svg role="img" viewBox="0 0 24 24" xmlns="http://www.w3.org/2000/svg"><title>C#</title><path d="M12 0C5.373 0 0 5.373 0 12s5.373 12 12 12 12-5.373 12-12S18.627 0 12 0zm-.84 3.816c.88 0 1.593.713 1.593 1.593s-.713 1.593-1.593 1.593-1.593-.713-1.593-1.593.713-1.593 1.593-1.593zm6.384 4.254c.88 0 1.593.713 1.593 1.593s-.713 1.593-1.593 1.593-1.593-.713-1.593-1.593.713-1.593 1.593-1.593zm-12.768 0c.88 0 1.593.713 1.593 1.593s-.713 1.593-1.593 1.593S3.183 10.463 3.183 9.583s.713-1.593 1.593-1.593zM12 16.08c-2.116 0-3.834-1.718-3.834-3.834S9.884 8.412 12 8.412s3.834 1.718 3.834 3.834S14.116 16.08 12 16.08z"/></svg>