<svg role="img" viewBox="0 0 24 24" xmlns="http://www.w3.org/2000/svg"><title>.NET</title><path d="M3 0C1.343 0 0 1.343 0 3v18c0 1.657 1.343 3 3 3h18c1.657 0 3-1.343 3-3V3c0-1.657-1.343-3-3-3H3zm2.772 4.625h2.83c.45 0 .836.386.836.836v2.83c0 .45-.386.836-.836.836h-2.83a.836.836 0 01-.836-.836v-2.83c0-.45.386-.836.836-.836zm0 4.625h2.83c.45 0 .836.386.836.836v2.83c0 .45-.386.836-.836.836h-2.83a.836.836 0 01-.836-.836v-2.83c0-.45.386-.836.836-.836zm4.625 0h2.83c.45 0 .836.386.836.836v2.83c0 .45-.386.836-.836.836h-2.83a.836.836 0 01-.836-.836v-2.83c0-.45.386-.836.836-.836zm0-4.625h2.83c.45 0 .836.386.836.836v2.83c0 .45-.386.836-.836.836h-2.83a.836.836 0 01-.836-.836v-2.83c0-.45.386-.836.836-.836zm4.625 0h2.83c.45 0 .836.386.836.836v2.83c0 .45-.386.836-.836.836h-2.83a.836.836 0 01-.836-.836v-2.83c0-.45.386-.836.836-.836zm0 4.625h2.83c.45 0 .836.386.836.836v2.83c0 .45-.386.836-.836.836h-2.83a.836.836 0 01-.836-.836v-2.83c0-.45.386-.836.836-.836z"/></svg>