<svg role="img" viewBox="0 0 24 24" xmlns="http://www.w3.org/2000/svg"><title>Java</title><path d="M8.851 18.56s-.917.53.607.701c1.548.172 1.542-.91 1.542-.91-.131-1.376-.198-2.73-.198-4.103 0-3.196.132-5.286.132-5.286s1.6 1.636 1.964 2.723c.384 1.145.269 2.115.269 2.115s.814.558 1.835.314c1.02-.245 1.274-.726 1.274-.726s-1.021-3.313-2.835-4.873c-1.815-1.56-4.468-1.725-4.468-1.725s-2.521-.063-4.174 1.726C3.01 8.759 2.001 12.095 2.001 12.095s.254.48 1.274.726c1.021.244 1.835-.314 1.835-.314s-.115-.97.269-2.115C5.743 8.395 7.343 6.759 7.343 6.759s.132 2.09.132 5.286c0 1.373-.067 2.727-.198 4.103 0 0-.006 1.082 1.542.91 1.524-.171.607-.701.607-.701zm2.999-4.103c0-1.373-.066-2.727-.198-4.103 0 0-.006-1.082 1.542-.91 1.524.171.607.701.607.701s-.917-.53-.607-.701c1.548-.172 1.542.91 1.542.91.131 1.376.198 2.73.198 4.103 0 3.196-.132 5.286-.132 5.286s-1.6-1.636-1.964-2.723c-.384-1.145-.269-2.115-.269-2.115s-.814-.558-1.835-.314c-1.02.245-1.274.726-1.274.726s1.021 3.313 2.835 4.873c1.815 1.56 4.468 1.725 4.468 1.725s2.521.063 4.174-1.726c1.653-1.789 2.662-5.125 2.662-5.125s-.254-.48-1.274-.726c-1.021-.244-1.835.314-1.835.314s.115.97-.269 2.115c-.384 1.145-1.964 2.781-1.964 2.781s-.132-2.09-.132-5.286z"/></svg>