<svg role="img" viewBox="0 0 24 24" xmlns="http://www.w3.org/2000/svg"><title>Jenkins</title><path d="M2.2 5.3c-.3.3-.3.8 0 1.1L5.8 10c.3.3.8.3 1.1 0 .3-.3.3-.8 0-1.1L3.3 5.3c-.3-.3-.8-.3-1.1 0zm18.6 0c-.3-.3-.8-.3-1.1 0L18.1 8.9c-.3.3-.3.8 0 1.1.3.3.8.3 1.1 0l1.6-1.6c.3-.3.3-.8 0-1.1zM12 7.5c-1.1 0-2 .9-2 2s.9 2 2 2 2-.9 2-2-.9-2-2-2zm-8.5 2c-.3 0-.5.2-.5.5s.2.5.5.5.5-.2.5-.5-.2-.5-.5-.5zm13 0c-.3 0-.5.2-.5.5s.2.5.5.5.5-.2.5-.5-.2-.5-.5-.5zm-6.5 6c-1.1 0-2 .9-2 2s.9 2 2 2 2-.9 2-2-.9-2-2-2z"/></svg>