<svg role="img" viewBox="0 0 24 24" xmlns="http://www.w3.org/2000/svg"><title>Kotlin</title><path d="M12.004 0v6.396L7.255 1.647S7.645.24 12.004 0zM7.255 1.647L1.506 7.396l5.75 5.75 5.75-5.75L7.255 1.647zM1.506 7.396L0 12.004l6.396 0L1.506 7.396zm0 9.151l5.75-5.75 5.75 5.75-5.75 5.75L1.506 16.547zM7.255 22.297L12.004 24v-6.396l-4.749-4.749L7.255 22.297zM16.547 22.297l4.749-4.749-4.749-4.749-4.749 4.749 4.749 4.749zM22.294 16.547L24 12.004l-6.396 0 4.69 4.543zM22.294 7.396L16.545 1.647 12.004 0v6.396l4.749 4.749 5.541-4.749zM16.545 1.647l-4.749 4.749 4.749 4.749 4.749-4.749L16.545 1.647z"/></svg>