<svg role="img" viewBox="0 0 24 24" xmlns="http://www.w3.org/2000/svg"><title>Linux</title><path d="M13.866 2.196c-.35.325-.65.71-.886 1.133C12.775 3.55 12.5 3.75 12.5 4s.275.45.48.671c.236.423.536.808.886 1.133.35.325.75.587 1.183.783.433.196.9.325 1.383.383.483.058.983.042 1.483-.05.5-.092.992-.258 1.45-.492.458-.234.883-.537 1.25-.9.367-.363.675-.783.917-1.25.242-.467.417-.983.517-1.517.1-.534.125-1.092.075-1.642-.05-.55-.175-1.092-.4-1.6-.225-.508-.525-.983-.875-1.408-.35-.425-.758-.783-1.2-.983-.442-.2-.925-.283-1.408-.233-.483.05-.958.192-1.4.425-.442.233-.833.558-1.158.958-.325.4-.592.867-.783 1.358-.191.491-.292 1.017-.292 1.55s.101 1.059.292 1.55c.191.491.458.958.783 1.358.325.4.716.725 1.158.958.442.233.917.375 1.4.425.483.05.966-.033 1.408-.233.442-.2.85-.558 1.2-.983.35-.425.65-.892.875-1.408.225-.516.35-1.05.4-1.6.05-.55-.025-1.108-.075-1.642-.1-.534-.275-1.05-.517-1.517-.242-.467-.55-.887-.917-1.25-.367-.363-.792-.666-1.25-.9-.458-.234-.95-.4-1.45-.492-.5-.092-1-.108-1.483-.05-.483.058-.95.187-1.383.383-.433.196-.833.458-1.183.783z"/></svg>