<svg role="img" viewBox="0 0 24 24" xmlns="http://www.w3.org/2000/svg"><title>MySQL</title><path d="M13.132 2.46c-.676-.483-1.506-.76-2.375-.76-1.336 0-2.555.676-3.25 1.792-.695-1.116-1.914-1.792-3.25-1.792-.87 0-1.7.277-2.375.76C1.907 3.676 1.627 5.21 1.627 6.75v10.5c0 1.54.28 3.074 1.555 4.29.676.483 1.506.76 2.375.76 1.336 0 2.555-.676 3.25-1.792.695 1.116 1.914 1.792 3.25 1.792.87 0 1.7-.277 2.375-.76 1.275-1.216 1.555-2.75 1.555-4.29V6.75c0-1.54-.28-3.074-1.555-4.29zM12.132 15c-1.105 0-2-.895-2-2s.895-2 2-2 2 .895 2 2-.895 2-2 2z"/></svg>