<svg role="img" viewBox="0 0 24 24" xmlns="http://www.w3.org/2000/svg"><title>Next.js</title><path d="M11.5725 0c-.1763 0-.3098.0013-.3584.0067-.0516.0053-.2159.021-.3636.0328-3.4088.3073-6.6017 2.1463-8.624 4.9728C1.1004 6.584.3802 8.3666.1082 10.255c-.0962.659-.108.8537-.108 1.7474s.012 1.0884.108 1.7476c.652 4.506 3.8591 8.2919 8.2087 9.6945.7789.2511 1.6.4223 2.5337.5255.3636.04 1.9354.04 2.299 0 1.6117-.1783 2.9772-.577 4.3237-1.2643.2065-.1056.2464-.1337.2183-.1573-.0188-.0139-.8987-1.1938-1.9543-2.62l-1.919-2.592-2.4047-3.5583c-1.3231-1.9564-2.4117-3.556-2.4211-3.556-.0094-.0026-.0187 1.5787-.0235 3.509-.0067 3.3802-.0093 3.5162-.0516 3.596-.061.115-.108.1618-.2064.2134-.075.0374-.1408.0445-.2252.0445-.1424 0-.6194-.0541-1.0842-.1506-1.54-.2227-3.6345-1.0243-6.5842-2.5398-8.031l-.308-.513-.7717-1.2857C9.8225.971 9.2912.7645 8.8492.7606c-.2657-.0034-.2862.0044-.31.0117zM8.72 1.66c-.3648.0067-.6962.09-1.028.2294-.5044.2577-.7717.8528-.7734 1.4375-.001.1602.017.2376.0645.3194.1834.3186.513.5536 1.0603.7181.5446.1616 1.3425.1561 1.9435-.0113.2727-.0747.4593-.1504.5462-.2222.4274-.2856 1.7186-2.0809 1.7186-2.0809 0-.2697-.367-.2697-.367 0C10.17 1.2457 9.267 1.66 8.72 1.66zm2.8294 1.3795c-.272.0013-.41.062-.5557.1734-.208.159-.359.371-.4286.5968-.2976.9698-1.7794 3.0695-1.7794 3.0695 0 .2687.367.2687.367 0 0 0 .367-.0117.367-.0117s1.0817-1.6383 1.3608-2.3978c.1289-.3515.3536-.7542.7646-1.0729.4942-.3832 1.1375-.3411 1.4466-.2465.1079.0334.2158.074.2842.124.3422.2563.5886.7308.6636 1.2206.2042.6735.4207 1.4163.4207 2.1856 0 .2687-.367.2687-.367 0-.0117-.6962-.0991-1.3191-.4223-1.8166-.5856-.9031-1.4113-1.0253-1.9244-1.0784-.3654-.0374-.5752-.052-.6762-.052-.5846 0-.292.36-.187.36zm-2.0995 2.699c-.22.0013-.2842.0943-.2842.0943s.2016 1.5446.349 2.2786c.153.7539.349 1.6858.349 1.6858s.0953-.5153.276-.9291c.2852-.653.8075-1.2891 1.4372-1.5796.4401-.2026.8684-.1391 1.2706-.0899.2343.0281.462.0621.6625.0899.5446.0758.9328-.1696.9328-.1696s-.0325-.1274-.1746-.1274c-.4994 0-1.0198.1555-1.3638.4648-.4352.3932-1.3232.6783-2.3457.6783-.5197 0-.9782-.1124-1.4155-.3237-.7252-.3488-1.0577-.9576-1.0577-.9576z"/></svg>