<svg role="img" viewBox="0 0 24 24" xmlns="http://www.w3.org/2000/svg"><title>PostgreSQL</title><path d="M21.5 8.5c-.3-.5-.8-.7-1.3-.7-.6 0-1.1.2-1.4.6-.4.5-.5 1.1-.5 1.8v2.8c0 .7.1 1.3.5 1.8.3.4.8.6 1.4.6.5 0 1-.2 1.3-.7.3-.5.4-1.1.4-1.8V9.3c0-.7-.1-1.3-.4-1.8zm-3.9 4.6c0-.4-.1-.8-.3-1-.2-.2-.5-.3-.9-.3s-.7.1-.9.3c-.2.2-.3.6-.3 1s.1.8.3 1c.2.2.5.3.9.3s.7-.1.9-.3c.2-.2.3-.6.3-1zm-6.4-4.6c-.3-.5-.8-.7-1.3-.7-.6 0-1.1.2-1.4.6-.4.5-.5 1.1-.5 1.8v2.8c0 .7.1 1.3.5 1.8.3.4.8.6 1.4.6.5 0 1-.2 1.3-.7.3-.5.4-1.1.4-1.8V9.3c0-.7-.1-1.3-.4-1.8zm-3.9 4.6c0-.4-.1-.8-.3-1-.2-.2-.5-.3-.9-.3s-.7.1-.9.3c-.2.2-.3.6-.3 1s.1.8.3 1c.2.2.5.3.9.3s.7-.1.9-.3c.2-.2.3-.6.3-1zm-6.4-4.6c-.3-.5-.8-.7-1.3-.7-.6 0-1.1.2-1.4.6-.4.5-.5 1.1-.5 1.8v2.8c0 .7.1 1.3.5 1.8.3.4.8.6 1.4.6.5 0 1-.2 1.3-.7.3-.5.4-1.1.4-1.8V9.3c0-.7-.1-1.3-.4-1.8zm-3.9 4.6c0-.4-.1-.8-.3-1-.2-.2-.5-.3-.9-.3s-.7.1-.9.3c-.2.2-.3.6-.3 1s.1.8.3 1c.2.2.5.3.9.3s.7-.1.9-.3c.2-.2.3-.6.3-1z"/></svg>