<svg role="img" viewBox="0 0 24 24" xmlns="http://www.w3.org/2000/svg"><title>React</title><path d="M12 10.11c1.03 0 1.87.84 1.87 1.89 0 1-.84 1.85-1.87 1.85S10.13 13 10.13 12c0-1.05.84-1.89 1.87-1.89zM7.37 16.15c.69 0 1.25.56 1.25 1.25 0 .7-.56 1.26-1.25 1.26s-1.25-.56-1.25-1.26c0-.69.56-1.25 1.25-1.25zm9.26 0c.69 0 1.25.56 1.25 1.25 0 .7-.56 1.26-1.25 1.26s-1.25-.56-1.25-1.26c0-.69.56-1.25 1.25-1.25zM12 2.16c-5.4 0-9.75 4.35-9.75 9.75s4.35 9.75 9.75 9.75 9.75-4.35 9.75-9.75-4.35-9.75-9.75-9.75zm-2.59 5.91c.92 0 1.66.74 1.66 1.66 0 .91-.74 1.65-1.66 1.65s-1.66-.74-1.66-1.65c0-.92.74-1.66 1.66-1.66zm5.18 0c.92 0 1.66.74 1.66 1.66 0 .91-.74 1.65-1.66 1.65s-1.66-.74-1.66-1.65c0-.92.74-1.66 1.66-1.66z"/></svg>